Coordinates
version=1
nRows=8
nColumns=40
inDegrees=yes

Units are S.I. units (second, meters, Newtons, ...)
Angles are in degrees.

endheader
time	pelvis_tilt	pelvis_list	pelvis_rotation	pelvis_tx	pelvis_ty	pelvis_tz	hip_flexion_r	hip_adduction_r	hip_rotation_r	knee_angle_r	knee_angle_r_beta	ankle_angle_r	subtalar_angle_r	mtp_angle_r	hip_flexion_l	hip_adduction_l	hip_rotation_l	knee_angle_l	knee_angle_l_beta	ankle_angle_l	subtalar_angle_l	mtp_angle_l	lumbar_extension	lumbar_bending	lumbar_rotation	arm_flex_r	arm_add_r	arm_rot_r	elbow_flex_r	pro_sup_r	wrist_flex_r	wrist_dev_r	arm_flex_l	arm_add_l	arm_rot_l	elbow_flex_l	pro_sup_l	wrist_flex_l	wrist_dev_l
      2.27000000	      2.13164305	     -2.89512618	     -0.54213495	     -0.10764288	      0.89511221	      1.44414941	     -6.48639714	      4.69860058	    -16.00148244	    -20.25922132	     -0.35359012	     13.20263426	      6.16416200	     -6.46244845	     20.80744353	      3.50377040	     12.89674681	    -13.80727458	     -0.24098240	     -3.25270162	     -2.85423394	     -8.59066365	    -11.07013636	      3.33716938	      7.62214966	     16.72067551	    -13.21113074	     22.66772124	     23.59448911	     89.95437384	      0.00000000	      0.00000000	     -4.77772673	      6.80102085	     -3.39529673	     21.61245655	     89.95437384	      0.00000000	      0.00000000
      2.28000000	      1.93519239	     -2.94797801	     -0.85063950	     -0.10064749	      0.89439646	      1.44410448	     -6.63434400	      4.62501685	    -15.74788034	    -20.50568675	     -0.35789175	     13.15247580	      6.17067564	     -6.44544673	     20.82099237	      3.54598806	     12.77236911	    -13.62123761	     -0.23773544	     -3.03571232	     -2.91446549	     -8.54480510	    -10.85288765	      3.32698239	      7.72730920	     16.71345501	    -13.05432801	     22.78388253	     23.55271829	     89.95437384	      0.00000000	      0.00000000	     -4.79400410	      6.75764140	     -3.40805385	     21.45305131	     89.95437384	      0.00000000	      0.00000000
      2.29000000	      1.78631705	     -2.93723984	     -1.23348904	     -0.09344773	      0.89378974	      1.44401342	     -6.80557351	      4.45982900	    -15.36508754	    -20.82291209	     -0.36342838	     13.07307292	      6.19532348	     -6.42847514	     20.71837327	      3.52284091	     12.57861084	    -13.61455252	     -0.23761877	     -2.92078621	     -2.89210364	     -8.47981272	    -10.68579335	      3.25826332	      7.88400584	     16.70728150	    -12.90642375	     22.96992354	     23.44423901	     89.95437384	      0.00000000	      0.00000000	     -4.74950898	      6.70485716	     -3.48396680	     21.16349698	     89.95437384	      0.00000000	      0.00000000
      2.30000000	      1.56103390	     -2.89955553	     -1.48802613	     -0.08613029	      0.89299405	      1.44381249	     -6.84775923	      4.27803717	    -15.13442660	    -21.24796216	     -0.37084690	     12.77846529	      6.00463324	     -6.30958026	     20.79845928	      3.46808384	     12.29954558	    -14.04349957	     -0.24510531	     -3.00723088	     -2.78078442	     -8.30401060	    -10.44841257	      3.13583943	      7.84966986	     16.50716337	    -12.79555690	     22.92021456	     23.76274483	     89.95437384	      0.00000000	      0.00000000	     -4.93715694	      6.75167782	     -3.47047193	     21.32508397	     89.95437384	      0.00000000	      0.00000000
      2.31000000	      1.57133270	     -2.83188877	     -2.04312143	     -0.07850731	      0.89275190	      1.44378466	     -7.24998465	      4.02694825	    -14.58305311	    -21.49903286	     -0.37522891	     12.87644165	      6.19405211	     -6.35122719	     20.33393151	      3.41067776	     12.30278476	    -14.25963635	     -0.24887760	     -3.48353335	     -2.29281743	     -8.16347382	    -10.39391373	      2.99647441	      8.16643891	     16.57035211	    -12.59057258	     23.24036371	     23.21322988	     89.95437384	      0.00000000	      0.00000000	     -4.67835939	      6.65187104	     -3.75317342	     20.53287630	     89.95437384	      0.00000000	      0.00000000
      2.32000000	      1.51489942	     -2.74279548	     -2.53510313	     -0.07077897	      0.89233786	      1.44375492	     -7.51770081	      3.72804107	    -14.19049235	    -21.86101766	     -0.38154674	     12.64679315	      6.21256751	     -6.30965240	     20.02035836	      3.33507400	     12.34134861	    -14.65595642	     -0.25579469	     -4.75262894	     -1.44126232	     -7.79462263	    -10.28742327	      2.80738613	      8.40178415	     16.45382731	    -12.45258546	     23.43452891	     23.08122163	     89.95437384	      0.00000000	      0.00000000	     -4.68176118	      6.66699120	     -4.20344991	     20.24377572	     89.95437384	      0.00000000	      0.00000000
      2.33000000	      1.43266861	     -2.50805895	     -2.93817157	     -0.06316080	      0.89213781	      1.44338604	     -7.67403408	      3.28209220	    -13.74479010	    -22.32908481	     -0.38971605	     12.40961834	      6.13480557	     -6.26412008	     19.71381904	      3.02664801	     12.17905603	    -14.83695605	     -0.25895373	     -6.15593513	     -0.71470286	     -7.44103666	    -10.16113866	      2.50452085	      8.52633918	     16.32153256	    -12.31630899	     23.58400582	     22.95343412	     89.95437384	      0.00000000	      0.00000000	     -4.57268689	      6.71340497	     -4.58862998	     19.91104310	     89.95437384	      0.00000000	      0.00000000
      2.34000000	      1.20369076	     -2.42896014	     -3.10314458	     -0.05559283	      0.89181744	      1.44291102	     -7.65943672	      3.08367507	    -13.50211968	    -22.80426581	     -0.39800952	     12.05801105	      5.92336996	     -6.13828546	     19.77381205	      2.90775427	     11.93670052	    -15.20690033	     -0.26541048	     -6.14390099	     -0.65380551	     -7.28489721	     -9.93348857	      2.35547129	      8.41361133	     15.99115740	    -12.23602923	     23.51535623	     23.23283613	     89.95437384	      0.00000000	      0.00000000	     -4.67187715	      6.82080999	     -4.55858531	     20.12512830	     89.95437384	      0.00000000	      0.00000000
